{
	"asset":{
		"generator":"Khronos glTF Blender I/O v5.2.40",
		"version":"2.0"
	},
	"scene":0,
	"scenes":[
		{
			"name":"Scene",
			"nodes":[
				0,
				1,
				2,
				3
			]
		}
	],
	"nodes":[
		{
			"mesh":0,
			"name":"Cube",
			"scale":[
				0.4305974245071411,
				0.4305974245071411,
				0.04084189608693123
			],
			"translation":[
				0,
				0,
				0.6625741720199585
			]
		},
		{
			"mesh":1,
			"name":"frame",
			"rotation":[
				1,
				0,
				0,
				0
			],
			"scale":[
				-0.03142142668366432,
				-0.7202199697494507,
				-0.46420955657958984
			]
		},
		{
			"mesh":2,
			"name":"glass",
			"rotation":[
				1,
				0,
				0,
				0
			],
			"scale":[
				-0.03142142668366432,
				-0.7202199697494507,
				-0.46420955657958984
			]
		},
		{
			"mesh":3,
			"name":"handle",
			"scale":[
				0.04406220093369484,
				0.30650627613067627,
				0.04406220093369484
			],
			"translation":[
				0.13084305822849274,
				0,
				-0.5605083703994751
			]
		}
	],
	"materials":[
		{
			"doubleSided":true,
			"name":"Material",
			"pbrMetallicRoughness":{
				"baseColorFactor":[
					0.800000011920929,
					0.800000011920929,
					0.800000011920929,
					1
				],
				"metallicFactor":0,
				"roughnessFactor":0.5
			}
		}
	],
	"meshes":[
		{
			"name":"Cube.002",
			"primitives":[
				{
					"attributes":{
						"POSITION":0,
						"NORMAL":1,
						"TEXCOORD_0":2
					},
					"indices":3
				}
			]
		},
		{
			"name":"Cube.001",
			"primitives":[
				{
					"attributes":{
						"POSITION":4,
						"NORMAL":5,
						"TEXCOORD_0":6
					},
					"indices":7,
					"material":0
				}
			]
		},
		{
			"name":"Cube",
			"primitives":[
				{
					"attributes":{
						"POSITION":8,
						"NORMAL":9,
						"TEXCOORD_0":10
					},
					"indices":11,
					"material":0
				}
			]
		},
		{
			"name":"Cylinder",
			"primitives":[
				{
					"attributes":{
						"POSITION":12,
						"NORMAL":13,
						"TEXCOORD_0":14
					},
					"indices":15
				}
			]
		}
	],
	"accessors":[
		{
			"bufferView":0,
			"componentType":5126,
			"count":24,
			"max":[
				0.09441369771957397,
				2.937427043914795,
				0.8669742941856384
			],
			"min":[
				-0.08738130331039429,
				-3.0428895950317383,
				-1.126011848449707
			],
			"type":"VEC3"
		},
		{
			"bufferView":1,
			"componentType":5126,
			"count":24,
			"type":"VEC3"
		},
		{
			"bufferView":2,
			"componentType":5126,
			"count":24,
			"type":"VEC2"
		},
		{
			"bufferView":3,
			"componentType":5123,
			"count":36,
			"type":"SCALAR"
		},
		{
			"bufferView":4,
			"componentType":5126,
			"count":88,
			"max":[
				1.1974666118621826,
				1.7561975717544556,
				1.3282489776611328
			],
			"min":[
				-1.2938501834869385,
				-1.819250464439392,
				-1.5575759410858154
			],
			"type":"VEC3"
		},
		{
			"bufferView":5,
			"componentType":5126,
			"count":88,
			"type":"VEC3"
		},
		{
			"bufferView":6,
			"componentType":5126,
			"count":88,
			"type":"VEC2"
		},
		{
			"bufferView":7,
			"componentType":5123,
			"count":162,
			"type":"SCALAR"
		},
		{
			"bufferView":8,
			"componentType":5126,
			"count":8,
			"max":[
				0.770443856716156,
				1.6405096054077148,
				1.3282489776611328
			],
			"min":[
				-0.7846910357475281,
				-1.703562617301941,
				-1.382230281829834
			],
			"type":"VEC3"
		},
		{
			"bufferView":9,
			"componentType":5126,
			"count":8,
			"type":"VEC3"
		},
		{
			"bufferView":10,
			"componentType":5126,
			"count":8,
			"type":"VEC2"
		},
		{
			"bufferView":11,
			"componentType":5123,
			"count":12,
			"type":"SCALAR"
		},
		{
			"bufferView":12,
			"componentType":5126,
			"count":458,
			"max":[
				1,
				1,
				1
			],
			"min":[
				-1.9072662591934204,
				-1,
				-3.8532018661499023
			],
			"type":"VEC3"
		},
		{
			"bufferView":13,
			"componentType":5126,
			"count":458,
			"type":"VEC3"
		},
		{
			"bufferView":14,
			"componentType":5126,
			"count":458,
			"type":"VEC2"
		},
		{
			"bufferView":15,
			"componentType":5123,
			"count":1044,
			"type":"SCALAR"
		}
	],
	"bufferViews":[
		{
			"buffer":0,
			"byteLength":288,
			"byteOffset":0,
			"target":34962
		},
		{
			"buffer":0,
			"byteLength":288,
			"byteOffset":288,
			"target":34962
		},
		{
			"buffer":0,
			"byteLength":192,
			"byteOffset":576,
			"target":34962
		},
		{
			"buffer":0,
			"byteLength":72,
			"byteOffset":768,
			"target":34963
		},
		{
			"buffer":0,
			"byteLength":1056,
			"byteOffset":840,
			"target":34962
		},
		{
			"buffer":0,
			"byteLength":1056,
			"byteOffset":1896,
			"target":34962
		},
		{
			"buffer":0,
			"byteLength":704,
			"byteOffset":2952,
			"target":34962
		},
		{
			"buffer":0,
			"byteLength":324,
			"byteOffset":3656,
			"target":34963
		},
		{
			"buffer":0,
			"byteLength":96,
			"byteOffset":3980,
			"target":34962
		},
		{
			"buffer":0,
			"byteLength":96,
			"byteOffset":4076,
			"target":34962
		},
		{
			"buffer":0,
			"byteLength":64,
			"byteOffset":4172,
			"target":34962
		},
		{
			"buffer":0,
			"byteLength":24,
			"byteOffset":4236,
			"target":34963
		},
		{
			"buffer":0,
			"byteLength":5496,
			"byteOffset":4260,
			"target":34962
		},
		{
			"buffer":0,
			"byteLength":5496,
			"byteOffset":9756,
			"target":34962
		},
		{
			"buffer":0,
			"byteLength":3664,
			"byteOffset":15252,
			"target":34962
		},
		{
			"buffer":0,
			"byteLength":2088,
			"byteOffset":18916,
			"target":34963
		}
	],
	"buffers":[
		{
			"byteLength":21004,
			"uri":"door_shop.bin"
		}
	]
}
