{
	"asset":{
		"generator":"Khronos glTF Blender I/O v5.2.40",
		"version":"2.0"
	},
	"scene":0,
	"scenes":[
		{
			"name":"Scene",
			"nodes":[
				0,
				1,
				2
			]
		}
	],
	"nodes":[
		{
			"mesh":0,
			"name":"Desk",
			"scale":[
				1,
				1,
				3.391201972961426
			],
			"translation":[
				0,
				0.5837475657463074,
				0
			]
		},
		{
			"mesh":1,
			"name":"Desk.001",
			"scale":[
				1,
				1,
				3.391201972961426
			],
			"translation":[
				0,
				0.5837475657463074,
				0
			]
		},
		{
			"mesh":2,
			"name":"Wireframe",
			"rotation":[
				0,
				0,
				-0.7071068286895752,
				0.7071068286895752
			],
			"translation":[
				-0.9779098033905029,
				2.1971869468688965,
				0.6320100426673889
			]
		}
	],
	"materials":[
		{
			"doubleSided":true,
			"name":"Led",
			"pbrMetallicRoughness":{
				"baseColorFactor":[
					0.800000011920929,
					0.800000011920929,
					0.800000011920929,
					1
				],
				"metallicFactor":0,
				"roughnessFactor":0.5
			}
		}
	],
	"meshes":[
		{
			"name":"Cube.001",
			"primitives":[
				{
					"attributes":{
						"POSITION":0,
						"NORMAL":1,
						"TEXCOORD_0":2
					},
					"indices":3,
					"material":0
				}
			]
		},
		{
			"name":"Cube.002",
			"primitives":[
				{
					"attributes":{
						"POSITION":4,
						"NORMAL":5,
						"TEXCOORD_0":6
					},
					"indices":7,
					"material":0
				}
			]
		},
		{
			"name":"Plane",
			"primitives":[
				{
					"attributes":{
						"POSITION":8,
						"NORMAL":9,
						"TEXCOORD_0":10
					},
					"indices":11
				}
			]
		}
	],
	"accessors":[
		{
			"bufferView":0,
			"componentType":5126,
			"count":1630,
			"max":[
				1,
				2.8591887950897217,
				1.1058111190795898
			],
			"min":[
				-1,
				-1.0797479152679443,
				-1.1058111190795898
			],
			"type":"VEC3"
		},
		{
			"bufferView":1,
			"componentType":5126,
			"count":1630,
			"type":"VEC3"
		},
		{
			"bufferView":2,
			"componentType":5126,
			"count":1630,
			"type":"VEC2"
		},
		{
			"bufferView":3,
			"componentType":5123,
			"count":4110,
			"type":"SCALAR"
		},
		{
			"bufferView":4,
			"componentType":5126,
			"count":4,
			"max":[
				0.45717668533325195,
				2.5547313690185547,
				0.959584653377533
			],
			"min":[
				-0.8133288621902466,
				2.5547313690185547,
				-0.8848075270652771
			],
			"type":"VEC3"
		},
		{
			"bufferView":5,
			"componentType":5126,
			"count":4,
			"type":"VEC3"
		},
		{
			"bufferView":6,
			"componentType":5126,
			"count":4,
			"type":"VEC2"
		},
		{
			"bufferView":7,
			"componentType":5123,
			"count":6,
			"type":"SCALAR"
		},
		{
			"bufferView":8,
			"componentType":5126,
			"count":2996,
			"max":[
				0.6135138273239136,
				0.022853506729006767,
				1.0458533763885498
			],
			"min":[
				-1.0174285173416138,
				-0.010235702618956566,
				-2.309873580932617
			],
			"type":"VEC3"
		},
		{
			"bufferView":9,
			"componentType":5126,
			"count":2996,
			"type":"VEC3"
		},
		{
			"bufferView":10,
			"componentType":5126,
			"count":2996,
			"type":"VEC2"
		},
		{
			"bufferView":11,
			"componentType":5123,
			"count":5808,
			"type":"SCALAR"
		}
	],
	"bufferViews":[
		{
			"buffer":0,
			"byteLength":19560,
			"byteOffset":0,
			"target":34962
		},
		{
			"buffer":0,
			"byteLength":19560,
			"byteOffset":19560,
			"target":34962
		},
		{
			"buffer":0,
			"byteLength":13040,
			"byteOffset":39120,
			"target":34962
		},
		{
			"buffer":0,
			"byteLength":8220,
			"byteOffset":52160,
			"target":34963
		},
		{
			"buffer":0,
			"byteLength":48,
			"byteOffset":60380,
			"target":34962
		},
		{
			"buffer":0,
			"byteLength":48,
			"byteOffset":60428,
			"target":34962
		},
		{
			"buffer":0,
			"byteLength":32,
			"byteOffset":60476,
			"target":34962
		},
		{
			"buffer":0,
			"byteLength":12,
			"byteOffset":60508,
			"target":34963
		},
		{
			"buffer":0,
			"byteLength":35952,
			"byteOffset":60520,
			"target":34962
		},
		{
			"buffer":0,
			"byteLength":35952,
			"byteOffset":96472,
			"target":34962
		},
		{
			"buffer":0,
			"byteLength":23968,
			"byteOffset":132424,
			"target":34962
		},
		{
			"buffer":0,
			"byteLength":11616,
			"byteOffset":156392,
			"target":34963
		}
	],
	"buffers":[
		{
			"byteLength":168008,
			"uri":"repair_desk.bin"
		}
	]
}
