{
	"asset":{
		"generator":"Khronos glTF Blender I/O v5.2.40",
		"version":"2.0"
	},
	"scene":0,
	"scenes":[
		{
			"name":"Scene",
			"nodes":[
				0,
				1,
				2,
				3,
				4
			]
		}
	],
	"nodes":[
		{
			"mesh":0,
			"name":"floor"
		},
		{
			"mesh":1,
			"name":"front"
		},
		{
			"mesh":2,
			"name":"roof"
		},
		{
			"mesh":3,
			"name":"wall"
		},
		{
			"mesh":4,
			"name":"walls"
		}
	],
	"meshes":[
		{
			"name":"Plane",
			"primitives":[
				{
					"attributes":{
						"POSITION":0,
						"NORMAL":1,
						"TEXCOORD_0":2
					},
					"indices":3
				}
			]
		},
		{
			"name":"Plane.009",
			"primitives":[
				{
					"attributes":{
						"POSITION":4,
						"NORMAL":5,
						"TEXCOORD_0":6
					},
					"indices":7
				}
			]
		},
		{
			"name":"Plane.015",
			"primitives":[
				{
					"attributes":{
						"POSITION":8,
						"NORMAL":9,
						"TEXCOORD_0":10
					},
					"indices":11
				}
			]
		},
		{
			"name":"Plane.012",
			"primitives":[
				{
					"attributes":{
						"POSITION":12,
						"NORMAL":13,
						"TEXCOORD_0":14
					},
					"indices":15
				}
			]
		},
		{
			"name":"Plane.010",
			"primitives":[
				{
					"attributes":{
						"POSITION":16,
						"NORMAL":17,
						"TEXCOORD_0":18
					},
					"indices":19
				}
			]
		}
	],
	"accessors":[
		{
			"bufferView":0,
			"componentType":5126,
			"count":8,
			"max":[
				2.938211679458618,
				0,
				6.555897235870361
			],
			"min":[
				-7.192286491394043,
				0,
				-2.9382119178771973
			],
			"type":"VEC3"
		},
		{
			"bufferView":1,
			"componentType":5126,
			"count":8,
			"type":"VEC3"
		},
		{
			"bufferView":2,
			"componentType":5126,
			"count":8,
			"type":"VEC2"
		},
		{
			"bufferView":3,
			"componentType":5123,
			"count":18,
			"type":"SCALAR"
		},
		{
			"bufferView":4,
			"componentType":5126,
			"count":48,
			"max":[
				2.9382119178771973,
				3.4533586502075195,
				2.9382119178771973
			],
			"min":[
				2.888211727142334,
				0,
				-2.9382100105285645
			],
			"type":"VEC3"
		},
		{
			"bufferView":5,
			"componentType":5126,
			"count":48,
			"type":"VEC3"
		},
		{
			"bufferView":6,
			"componentType":5126,
			"count":48,
			"type":"VEC2"
		},
		{
			"bufferView":7,
			"componentType":5123,
			"count":84,
			"type":"SCALAR"
		},
		{
			"bufferView":8,
			"componentType":5126,
			"count":36,
			"max":[
				2.938211441040039,
				3.5033586025238037,
				6.591252326965332
			],
			"min":[
				-7.17764139175415,
				3.4533586502075195,
				-2.9882121086120605
			],
			"type":"VEC3"
		},
		{
			"bufferView":9,
			"componentType":5126,
			"count":36,
			"type":"VEC3"
		},
		{
			"bufferView":10,
			"componentType":5126,
			"count":36,
			"type":"VEC2"
		},
		{
			"bufferView":11,
			"componentType":5123,
			"count":60,
			"type":"SCALAR"
		},
		{
			"bufferView":12,
			"componentType":5126,
			"count":48,
			"max":[
				-2.9382119178771973,
				3.4533586502075195,
				2.9382119178771973
			],
			"min":[
				-2.9882121086120605,
				0,
				-2.9382119178771973
			],
			"type":"VEC3"
		},
		{
			"bufferView":13,
			"componentType":5126,
			"count":48,
			"type":"VEC3"
		},
		{
			"bufferView":14,
			"componentType":5126,
			"count":48,
			"type":"VEC2"
		},
		{
			"bufferView":15,
			"componentType":5123,
			"count":84,
			"type":"SCALAR"
		},
		{
			"bufferView":16,
			"componentType":5126,
			"count":72,
			"max":[
				2.938211441040039,
				3.4533586502075195,
				6.591252326965332
			],
			"min":[
				-7.177641868591309,
				0,
				-2.9882121086120605
			],
			"type":"VEC3"
		},
		{
			"bufferView":17,
			"componentType":5126,
			"count":72,
			"type":"VEC3"
		},
		{
			"bufferView":18,
			"componentType":5126,
			"count":72,
			"type":"VEC2"
		},
		{
			"bufferView":19,
			"componentType":5123,
			"count":132,
			"type":"SCALAR"
		}
	],
	"bufferViews":[
		{
			"buffer":0,
			"byteLength":96,
			"byteOffset":0,
			"target":34962
		},
		{
			"buffer":0,
			"byteLength":96,
			"byteOffset":96,
			"target":34962
		},
		{
			"buffer":0,
			"byteLength":64,
			"byteOffset":192,
			"target":34962
		},
		{
			"buffer":0,
			"byteLength":36,
			"byteOffset":256,
			"target":34963
		},
		{
			"buffer":0,
			"byteLength":576,
			"byteOffset":292,
			"target":34962
		},
		{
			"buffer":0,
			"byteLength":576,
			"byteOffset":868,
			"target":34962
		},
		{
			"buffer":0,
			"byteLength":384,
			"byteOffset":1444,
			"target":34962
		},
		{
			"buffer":0,
			"byteLength":168,
			"byteOffset":1828,
			"target":34963
		},
		{
			"buffer":0,
			"byteLength":432,
			"byteOffset":1996,
			"target":34962
		},
		{
			"buffer":0,
			"byteLength":432,
			"byteOffset":2428,
			"target":34962
		},
		{
			"buffer":0,
			"byteLength":288,
			"byteOffset":2860,
			"target":34962
		},
		{
			"buffer":0,
			"byteLength":120,
			"byteOffset":3148,
			"target":34963
		},
		{
			"buffer":0,
			"byteLength":576,
			"byteOffset":3268,
			"target":34962
		},
		{
			"buffer":0,
			"byteLength":576,
			"byteOffset":3844,
			"target":34962
		},
		{
			"buffer":0,
			"byteLength":384,
			"byteOffset":4420,
			"target":34962
		},
		{
			"buffer":0,
			"byteLength":168,
			"byteOffset":4804,
			"target":34963
		},
		{
			"buffer":0,
			"byteLength":864,
			"byteOffset":4972,
			"target":34962
		},
		{
			"buffer":0,
			"byteLength":864,
			"byteOffset":5836,
			"target":34962
		},
		{
			"buffer":0,
			"byteLength":576,
			"byteOffset":6700,
			"target":34962
		},
		{
			"buffer":0,
			"byteLength":264,
			"byteOffset":7276,
			"target":34963
		}
	],
	"buffers":[
		{
			"byteLength":7540,
			"uri":"repair_building.bin"
		}
	]
}
